<?xml version="1.0" encoding="utf-8"?>
<!-- Generator: Adobe Illustrator 22.1.0, SVG Export Plug-In . SVG Version: 6.00 Build 0)  -->
<svg version="1.1" id="Шар_1" xmlns="http://www.w3.org/2000/svg" xmlns:xlink="http://www.w3.org/1999/xlink" x="0px" y="0px"
	 viewBox="0 0 520.8 398.8" style="enable-background:new 0 0 520.8 398.8;" xml:space="preserve">
<style type="text/css">
	.st0{fill:#FFFFFF;}
</style>
<g>
	<g>
		<path class="st0" d="M22.9,231.8c-1.1-0.7-2-1.9-2.2-3.3C19.9,222.2,1,73.9,7.7,9.9c0.3-2.5,2.5-4.3,4.9-4c2.5,0.3,4.3,2.5,4,4.9
			c-6.6,63.1,12.8,215.1,13,216.6c0.3,2.5-1.4,4.7-3.9,5C24.7,232.6,23.7,232.3,22.9,231.8z"/>
		<path class="st0" d="M71.8,130.6c-0.8-0.5-1.4-1.2-1.8-2.1c-0.4-1-42-95.5-60.3-114.8C8,12,8.1,9.1,9.9,7.4
			c1.8-1.7,4.7-1.6,6.4,0.2c19.3,20.4,60.2,113.4,62,117.3c1,2.3,0,4.9-2.3,5.9C74.5,131.5,73,131.3,71.8,130.6z"/>
		<path class="st0" d="M58,173.1c-1.5-0.9-2.4-2.6-2.2-4.4c0.2-1.6,5.5-40,59-145.3c1.1-2.2,3.8-3.1,6.1-2c2.2,1.1,3.1,3.8,2,6
			c-52.6,103.4-58.1,142-58.1,142.3c-0.3,2.5-2.6,4.2-5,3.9C59.1,173.6,58.5,173.4,58,173.1z"/>
		<path class="st0" d="M123,202.3c-1.1-0.6-1.9-1.7-2.1-3c-7.6-38.5-8.5-177.8-8.6-183.7c0-2.5,2-4.5,4.5-4.5c2.5,0,4.5,2,4.5,4.5
			c0,1.4,1,144.3,8.4,182c0.5,2.4-1.1,4.8-3.6,5.3C125.1,203.1,123.9,202.8,123,202.3z"/>
		<path class="st0" d="M110.4,239c-1.1-0.6-1.9-1.7-2.1-3c-0.4-2.4,1.2-4.8,3.6-5.3c2.5-0.5,60.6-11.3,73.2-11.6
			c2.5-0.1,4.6,1.9,4.6,4.4c0.1,2.5-1.9,4.6-4.4,4.6c-11.9,0.3-71.2,11.4-71.8,11.5C112.4,239.8,111.3,239.6,110.4,239z"/>
		<path class="st0" d="M187.5,311.6c-1.2-0.7-2-1.9-2.2-3.4c-0.3-2.8-7.1-68.9-4-85.8c0.4-2.4,2.8-4.1,5.2-3.6s4.1,2.8,3.6,5.2
			c-2.4,12.9,2.1,64.4,4.1,83.2c0.3,2.5-1.5,4.7-4,4.9C189.3,312.3,188.3,312.1,187.5,311.6z"/>
		<path class="st0" d="M140.1,319.4c-1-0.6-1.8-1.6-2.1-2.9c-4.9-21.3-7.3-81.8-7.4-84.4c-0.1-2.5,1.8-4.6,4.3-4.7
			c2.5-0.1,4.6,1.8,4.7,4.3c0,0.6,2.5,62.3,7.2,82.8c0.6,2.4-0.9,4.8-3.4,5.4C142.3,320.2,141.1,320,140.1,319.4z"/>
		<path class="st0" d="M210.3,308.2c-1.2-0.7-2.1-2-2.2-3.5c-0.2-2.7-5.4-67.2-5.1-79c0.1-2.5,2.2-4.4,4.6-4.4
			c2.5,0.1,4.4,2.2,4.4,4.6c-0.4,11.3,5,77.3,5,77.9c0.2,2.5-1.6,4.6-4.1,4.9C212,308.9,211.1,308.7,210.3,308.2z"/>
		<path class="st0" d="M242.1,311.1c-1.1-0.6-1.9-1.7-2.1-3.1c-2.9-16.5-6.8-79.6-6.9-82.2c-0.1-2.5,1.7-4.6,4.2-4.8
			s4.6,1.7,4.8,4.2c0,0.6,3.9,65.2,6.8,81.2c0.4,2.5-1.2,4.8-3.6,5.2C244.1,311.9,243,311.6,242.1,311.1z"/>
		<path class="st0" d="M441.9,301.8c-1-0.6-1.7-1.5-2-2.6c-4.4-15.4-6.9-85.2-7-88.1c-0.1-2.5,1.9-4.6,4.3-4.7
			c2.5-0.1,4.6,1.9,4.7,4.3c0.9,24.7,3.4,74.5,6.7,86c0.7,2.4-0.7,4.9-3.1,5.6C444.2,302.6,442.9,302.4,441.9,301.8z"/>
		<path class="st0" d="M442.2,301.8c-1.3-0.8-2.2-2.2-2.2-3.9c0-2.5,2-4.5,4.5-4.5c22.6,0.1,43.3-6.8,49.5-13.4
			c0.6-0.6,1.6-1.9,1.6-3c-1.3-12.8-35.7-16.4-52.3-16.1c-2.5,0-4.5-1.9-4.6-4.4c0-2.5,1.9-4.5,4.4-4.6c6.1-0.1,59.3-0.3,61.4,24.4
			c0,0,0,0.1,0,0.1c0.1,2.3-0.5,5.9-4.1,9.7c-8.9,9.4-33,16.3-56.1,16.2C443.6,302.4,442.8,302.1,442.2,301.8z"/>
		<path class="st0" d="M420.2,299.4c-0.9-0.5-1.7-1.4-2-2.5c-4.7-15.3-6-81.5-6-84.3c0-2.5,1.9-4.5,4.4-4.6c2.5-0.1,4.5,1.9,4.6,4.4
			c0.4,18.8,2.1,70.2,5.6,81.9c0.7,2.4-0.6,4.9-3,5.6C422.6,300.2,421.3,300,420.2,299.4z"/>
		<path class="st0" d="M375.7,302.3c-0.9-0.6-1.7-1.5-2-2.6c-7.9-26.7-6.7-85-6.6-87.5c0.1-2.5,2.1-4.5,4.6-4.4
			c2.5,0.1,4.5,2.1,4.4,4.6c0,0.6-1.3,59.4,6.2,84.7c0.7,2.4-0.6,4.9-3,5.6C378,303.2,376.8,303,375.7,302.3z"/>
		<path class="st0" d="M372.4,261.5c-1.1-0.7-2-1.8-2.2-3.3c-0.3-2.5,1.4-4.7,3.8-5.1l43.4-6c2.5-0.3,4.7,1.4,5.1,3.8
			c0.3,2.5-1.4,4.7-3.8,5.1l-43.4,6C374.3,262.2,373.3,262,372.4,261.5z"/>
		<path class="st0" d="M313.9,307.5c-0.8-0.4-1.4-1.1-1.8-2c-4.5-9.7-7.2-72.4-7.6-84.8c-0.1-2.5,1.8-4.6,4.3-4.7
			c2.5-0.1,4.6,1.8,4.7,4.3c1.4,35.3,4.2,75.9,6.8,81.4c1,2.3,0.1,4.9-2.2,6C316.8,308.4,315.2,308.2,313.9,307.5z"/>
		<path class="st0" d="M299.2,308.3c-1.2-0.7-2-2-2.2-3.5c-0.2-2.5,1.6-4.7,4.1-4.9c0.1,0,14.9-1.4,29.5-2.7
			c31-2.7,31.2-2.7,32.8-1.7c2.1,1.3,2.8,4,1.6,6.2c-1,1.6-2.7,2.4-4.5,2.2c-4,0-37.8,3-58.6,5C301,309,300,308.7,299.2,308.3z
			 M358.8,303.3C358.8,303.3,358.8,303.3,358.8,303.3C358.8,303.3,358.8,303.3,358.8,303.3z"/>
		<path class="st0" d="M298.5,267.4c-1-0.6-1.8-1.7-2.1-2.9c-0.5-2.4,1-4.8,3.5-5.3c1.5-0.3,37.7-8,57.5-5.9c2.5,0.3,4.3,2.5,4,4.9
			c-0.3,2.5-2.5,4.3-4.9,4c-18.5-1.9-54.4,5.7-54.7,5.8C300.6,268.2,299.5,268,298.5,267.4z"/>
		<path class="st0" d="M297.1,226.6c-1.2-0.7-2-1.9-2.2-3.4c-0.3-2.5,1.5-4.7,4-4.9c4.7-0.5,45.9-4.8,52.9-4c2.5,0.3,4.2,2.5,3.9,5
			s-2.5,4.2-5,3.9c-4.5-0.5-33.6,2.2-50.9,4C298.9,227.3,297.9,227.1,297.1,226.6z"/>
		<path class="st0" d="M481.4,186.6c-1.1-0.6-1.9-1.7-2.1-3.1c-7.8-42.5-4.1-81.5-3.9-83.2c0.3-2.5,2.5-4.3,4.9-4s4.3,2.4,4,4.9
			c0,0.4-3.8,39.5,3.8,80.7c0.5,2.4-1.2,4.8-3.6,5.2C483.4,187.4,482.3,187.2,481.4,186.6z"/>
		<path class="st0" d="M431.5,190.6c-1.1-0.7-2-1.9-2.2-3.3c-4.7-36.9-2.8-84.5-2.8-85c0.1-2.5,2.2-4.4,4.7-4.3
			c2.5,0.1,4.4,2.2,4.3,4.7c0,0.5-1.9,47.3,2.8,83.5c0.3,2.5-1.4,4.7-3.9,5C433.3,191.3,432.3,191.1,431.5,190.6z"/>
		<path class="st0" d="M432.3,190.1c-2-1.2-2.8-3.8-1.7-5.9c23.5-45.5,75.9-91.1,78.2-93c1.9-1.6,4.7-1.4,6.3,0.5
			c1.6,1.9,1.4,4.7-0.5,6.3c-0.5,0.5-53.4,46.4-76,90.3c-1.1,2.2-3.9,3.1-6.1,1.9C432.5,190.2,432.4,190.2,432.3,190.1z"/>
		<path class="st0" d="M437.9,93.4c-0.9-0.5-1.6-1.3-2-2.4c-0.8-2.3,0.4-4.9,2.8-5.7c26.1-9.1,44.4-5,45.1-4.8
			c2.4,0.6,3.9,3,3.3,5.4c-0.6,2.4-3,3.9-5.4,3.3c-0.3-0.1-16.7-3.6-40.1,4.6C440.4,94.2,439,94,437.9,93.4z"/>
		<path class="st0" d="M416.3,199.3c-0.9-0.5-1.6-1.4-2-2.4c-12.8-37.3-7.9-92.3-7.6-94.6c0.2-2.5,2.4-4.3,4.9-4.1
			c2.5,0.2,4.3,2.4,4.1,4.9c0,0.6-4.9,55.4,7.2,90.9c0.8,2.4-0.5,4.9-2.8,5.7C418.8,200.1,417.4,199.9,416.3,199.3z"/>
		<path class="st0" d="M343.8,204c-0.1-0.1-0.2-0.1-0.3-0.2c-2-1.5-2.5-4.3-1-6.3c1.7-2.3,40.9-56.3,65.5-71.2
			c2.1-1.3,4.9-0.6,6.2,1.5c1.3,2.1,0.6,4.9-1.5,6.2c-23,13.9-62.5,68.2-62.9,68.8C348.4,204.7,345.8,205.2,343.8,204z"/>
		<path class="st0" d="M360.7,185.6c-1.2-0.7-2.1-2-2.2-3.6c-1.5-22.7,0-73.1,0.1-75.2c0.1-2.5,2.2-4.4,4.6-4.4
			c2.5,0.1,4.4,2.2,4.4,4.6c0,0.5-1.6,52.1-0.1,74.3c0.2,2.5-1.7,4.6-4.2,4.8C362.4,186.3,361.5,186,360.7,185.6z"/>
		<path class="st0" d="M303.2,196.9c-1-0.6-1.8-1.6-2.1-2.9c-5.4-24.3-7.5-81.7-7.6-84.1c-0.1-2.5,1.9-4.6,4.3-4.7
			c2.5-0.1,4.6,1.8,4.7,4.3c0,0.6,2.1,58.9,7.4,82.5c0.5,2.4-1,4.8-3.4,5.4C305.4,197.7,304.2,197.5,303.2,196.9z"/>
		<path class="st0" d="M304.1,197.1c-1.1-0.6-1.9-1.7-2.1-3.1c-0.4-2.4,1.2-4.8,3.6-5.2c8.1-1.4,30.4-7.1,36-15.7
			c1-1.6,1.3-3.2,0.9-4.9c-2.5-9.8-34.2-10.1-54.9-7.3c-2.5,0.3-4.7-1.4-5.1-3.9c-0.3-2.5,1.4-4.7,3.9-5.1c0.6-0.1,14.4-1.9,29-1.5
			c21.4,0.6,33.5,5.8,35.9,15.5c1,4.1,0.3,8.3-2.1,12c-8.7,13.5-38.6,19.1-42,19.7C306,197.8,305,197.6,304.1,197.1z"/>
		<path class="st0" d="M300.3,151.4c-1-0.6-1.8-1.6-2.1-2.9c-0.5-2.4,1-4.8,3.4-5.4c12.6-2.8,34.5-10.2,39.2-18.4
			c0.8-1.4,1-2.7,0.6-4c-1.5-4.7-4.2-7.9-8.4-9.7c-13.3-5.8-37.9,3.4-46.2,7.4c-2.2,1.1-4.9,0.1-6-2.1c-1.1-2.2-0.1-4.9,2.1-6
			c1.4-0.7,33.9-16.2,53.8-7.6c6.6,2.9,11.2,8.1,13.4,15.3c1.1,3.8,0.7,7.6-1.4,11.2c-8.3,14.2-41.3,21.8-45.1,22.6
			C302.4,152.2,301.2,152,300.3,151.4z"/>
		<path class="st0" d="M227.1,314.4c-1.1-0.7-1.9-1.8-2.1-3.2c-0.4-2.5,1.4-4.7,3.8-5.1c17.5-2.5,47.3-9.6,52.7-17.7
			c0.6-1,0.6-1.5,0.5-2c-2.4-9.5-28.4-10-40.5-8.8c-2.5,0.3-4.7-1.5-4.9-4c-0.3-2.5,1.5-4.7,4-5c4.6-0.5,45.2-4.2,50.2,15.5
			c0.8,3.1,0.2,6.3-1.8,9.2c-9.4,14.1-53.9,20.9-58.9,21.6C229,315.1,228,314.9,227.1,314.4z"/>
		<path class="st0" d="M239.1,265.9c-1.2-0.7-2.1-2-2.2-3.5c-0.2-2.5,1.7-4.6,4.2-4.8c4.9-0.4,36.4-10.8,42.3-21.5
			c1.2-2.1,0.8-3.4,0.2-4.5c-5.8-10.9-33.8-5.1-43.2-2.3c-2.4,0.7-4.9-0.6-5.6-3s0.6-4.9,3-5.6c4.4-1.4,43.4-12.6,53.7,6.6
			c2.2,4.2,2.1,8.7-0.3,13.1c-8.2,15-43.7,25.7-49.5,26.1C240.7,266.6,239.8,266.4,239.1,265.9z"/>
		<path class="st0" d="M197.4,195c-1.2-0.7-2.1-2-2.2-3.6c0-0.6-4.1-57.4-5.5-80.1c-0.1-2.5,1.7-4.6,4.2-4.8
			c2.5-0.2,4.6,1.7,4.8,4.2c1.4,22.7,5.4,79.5,5.4,80c0.2,2.5-1.7,4.6-4.2,4.8C199.1,195.7,198.2,195.5,197.4,195z"/>
		<path class="st0" d="M196.8,157.4c-0.9-0.6-1.7-1.5-2-2.6c-0.7-2.4,0.7-4.9,3.1-5.6c11.3-3.3,36.3-16.5,41.9-28.9
			c1.3-2.9,1.4-5.4,0.3-7.9c-5.6-11.9-33.2-2.6-42.4,1.6c-2.3,1-4.9,0-5.9-2.2c-1-2.3,0-4.9,2.2-6c4.5-2,44-19.2,54.3,2.8
			c2.2,4.8,2.2,10.1-0.2,15.4c-7.8,17.3-38,31-47.5,33.8C199.1,158.3,197.9,158.1,196.8,157.4z"/>
		<path class="st0" d="M143.8,203.9c-1.3-0.8-2.2-2.2-2.2-3.8c-0.4-35.8-9.9-81.5-10-82c-0.5-2.4,1-4.8,3.5-5.3
			c2.4-0.5,4.8,1,5.3,3.5c0.4,1.9,9.9,47.1,10.2,83.7c0,2.5-2,4.5-4.4,4.6C145.3,204.6,144.5,204.4,143.8,203.9z"/>
		<path class="st0" d="M130.8,208.5c-1.1-0.6-1.9-1.7-2.1-3.1c-0.4-2.4,1.2-4.8,3.6-5.2l52.7-9.4c2.4-0.4,4.8,1.2,5.2,3.6
			s-1.2,4.8-3.6,5.2l-52.7,9.4C132.8,209.3,131.7,209,130.8,208.5z"/>
		<path class="st0" d="M138.1,164.9c-1.1-0.6-1.9-1.8-2.1-3.1c-0.4-2.4,1.2-4.8,3.7-5.2l41-6.9c2.4-0.4,4.8,1.2,5.2,3.7
			c0.4,2.4-1.2,4.8-3.7,5.2l-41,6.9C140.1,165.6,139,165.4,138.1,164.9z"/>
		<path class="st0" d="M135,121.5c-1.1-0.6-1.9-1.7-2.1-3c-0.5-2.4,1.1-4.8,3.5-5.3l48.5-9.6c2.4-0.5,4.8,1.1,5.3,3.5
			s-1.1,4.8-3.5,5.3l-48.5,9.6C137.1,122.3,135.9,122,135,121.5z"/>
		<path class="st0" d="M224.5,101.6c-1-0.6-1.8-1.6-2.1-2.8c-0.6-2.4,0.8-4.9,3.3-5.5c2-0.5,50.2-12.6,95.7-10
			c2.5,0.2,4.4,2.3,4.2,4.8c-0.1,2.5-2.3,4.4-4.8,4.2c-44.1-2.6-92.5,9.6-93,9.7C226.7,102.4,225.5,102.2,224.5,101.6z"/>
		<path class="st0" d="M271.4,195.5c-1.1-0.6-1.9-1.7-2.1-3.1c-11-62.4-5.5-101-5.2-102.6c0.4-2.5,2.7-4.2,5.1-3.8
			c2.5,0.4,4.2,2.7,3.8,5.1c-0.1,0.5-5.5,38.9,5.2,99.7c0.4,2.4-1.2,4.8-3.6,5.2C273.4,196.2,272.3,196,271.4,195.5z"/>
		<path class="st0" d="M203.6,208.6c3.2,1.9,7.4,0.9,9.3-2.4s0.9-7.4-2.4-9.3s-7.4-0.9-9.3,2.4S200.4,206.6,203.6,208.6z"/>
		<path class="st0" d="M272.9,381.6c-2.7-1.6-5.6-4.6-6.5-10.4c-0.8-5.8,0.6-11,4.1-15.1c2.2-2.6,5.1-4.5,8.1-5.9
			c-0.4-0.4-0.9-0.9-1.3-1.3c-3.5-4.2-4.4-9.9-2.4-16.9c1.9-7.1,5.6-11.9,11-14.2c9.1-4,19.2,1.1,19.6,1.3c2.2,1.1,3.1,3.8,2,6
			c-1.1,2.2-3.8,3.1-6,2c-1.9-0.9-7.7-3-12-1.1c-2.7,1.2-4.7,4-5.9,8.4c-1.1,4-0.9,6.9,0.7,8.8c2.3,2.8,7.5,3.4,10.4,3.4
			c0.8,0,1.4-0.1,1.7-0.1c2.4,0,4.4,1.9,4.5,4.3s-1.7,4.5-4.1,4.7c-0.3,0-1,0.1-1.9,0.1c-4.6,0.3-13.5,1.9-17.6,6.5
			c-1.8,2.1-2.5,4.7-2,7.9c0.4,2.7,1.5,3.6,2.4,4.1c5.5,2.8,19.7-2.5,28-7.1c2.2-1.2,4.9-0.4,6.1,1.7c1.2,2.2,0.4,4.9-1.7,6.1
			c-2.5,1.4-24.4,13.3-36.4,7.3C273.5,381.9,273.2,381.7,272.9,381.6z"/>
		<path class="st0" d="M315.4,340.4c-0.9-0.5-1.6-1.4-2-2.5c-0.7-2.4,0.6-4.9,3-5.6c0.7-0.2,17.5-5.5,33.6-4.4
			c2.5,0.2,4.4,2.3,4.2,4.8c-0.2,2.5-2.3,4.4-4.8,4.2c-14.4-1-30.2,3.9-30.3,4C317.7,341.2,316.4,341,315.4,340.4z"/>
		<path class="st0" d="M330.9,378.6c-1-0.6-1.8-1.6-2.1-2.9c-3.9-17.3-0.7-40.7-0.6-41.7c0.3-2.5,2.6-4.2,5.1-3.8
			c2.5,0.3,4.2,2.6,3.8,5.1c0,0.2-3.1,22.8,0.4,38.5c0.5,2.4-1,4.8-3.4,5.4C333,379.3,331.8,379.1,330.9,378.6z"/>
		<path class="st0" d="M361.2,377.3c-8.1-4.8-12.4-16.4-9.9-28.6c1.4-6.8,4.6-12.9,9.2-17c5-4.5,10.8-6.4,16.6-5.3
			c5.7,1.2,10.4,5.2,13.2,11.3c2.6,5.6,3.2,12.5,1.9,19.3c-0.9,4.5-2.7,8.7-5.1,12.3c-5.3,7.7-13.2,11.5-20.7,10
			C364.5,378.9,362.8,378.2,361.2,377.3z M377.7,336.2c-0.8-0.5-1.6-0.8-2.4-1c-2.8-0.6-5.9,0.5-8.7,3.1c-3.2,2.9-5.5,7.2-6.5,12.2
			c-1.9,9.5,1.8,18.7,8,20c3.9,0.8,8.3-1.6,11.5-6.3c1.8-2.6,3-5.7,3.7-9c1-5,0.6-9.9-1.2-13.8C381,339,379.5,337.3,377.7,336.2z"/>
		<path class="st0" d="M368,378.3c-1.5-0.9-2.4-2.6-2.2-4.4c1.9-14.9,3.3-42.9,3.3-43.1c0.1-2.5,2.2-4.4,4.7-4.3
			c2.5,0.1,4.4,2.2,4.3,4.7c0,1.2-1.4,28.6-3.3,43.8c-0.3,2.5-2.6,4.2-5,3.9C369.1,378.8,368.5,378.6,368,378.3z"/>
		<path class="st0" d="M381.8,366.6c-0.2-0.1-0.4-0.3-0.6-0.5l-10-8.6c-1.9-1.6-2.1-4.5-0.5-6.3c1.6-1.9,4.5-2.1,6.3-0.5l10,8.6
			c1.9,1.6,2.1,4.5,0.5,6.3C386,367.3,383.6,367.6,381.8,366.6z"/>
		<path class="st0" d="M355.6,362.6c-0.8-0.5-1.5-1.2-1.8-2.1c-1-2.3,0.1-4.9,2.4-5.9l13.8-5.9c2.3-1,4.9,0.1,5.9,2.4
			s-0.1,4.9-2.4,5.9l-13.8,5.9C358.3,363.4,356.8,363.3,355.6,362.6z"/>
		<path class="st0" d="M241.6,395.2c-1.4-0.8-2.3-2.4-2.2-4.2c0.5-7-0.7-10.5-0.7-10.6c-0.9-2.3,0.3-4.9,2.6-5.8
			c2.3-0.9,4.9,0.3,5.8,2.7c0.2,0.5,1.9,5.3,1.2,14.3c-0.2,2.5-2.3,4.3-4.8,4.2C242.9,395.7,242.2,395.5,241.6,395.2z"/>
		<path class="st0" d="M252.7,393.9c-1.4-0.8-2.3-2.4-2.2-4.2c0.6-7.5-0.2-11.5-0.2-11.5c-0.4-2.4,1.1-4.8,3.6-5.3
			c2.4-0.5,4.8,1.1,5.3,3.5c0.1,0.5,1,5.2,0.3,13.9c-0.2,2.5-2.3,4.4-4.8,4.2C253.9,394.4,253.3,394.2,252.7,393.9z"/>
		<path class="st0" d="M411,343.2c-1.4-0.8-2.3-2.4-2.2-4.2c0.5-7-0.7-10.5-0.7-10.6c-0.9-2.3,0.3-4.9,2.6-5.8
			c2.3-0.9,4.9,0.3,5.8,2.7c0.2,0.5,1.9,5.3,1.2,14.3c-0.2,2.5-2.3,4.4-4.8,4.2C412.2,343.8,411.5,343.5,411,343.2z"/>
		<path class="st0" d="M422,341.9c-1.4-0.8-2.3-2.4-2.2-4.2c0.5-7.5-0.2-11.5-0.2-11.5c-0.5-2.4,1.1-4.8,3.6-5.3
			c2.4-0.5,4.8,1.1,5.3,3.5c0.1,0.5,1,5.2,0.3,13.9c-0.2,2.5-2.3,4.3-4.8,4.2C423.3,342.4,422.6,342.2,422,341.9z"/>
	</g>
</g>
</svg>
